<?xml version="1.0" ?><svg enable-background="new 0 0 512 512" id="outline" version="1.1" viewBox="0 0 512 512" xml:space="preserve" xmlns="http://www.w3.org/2000/svg" xmlns:xlink="http://www.w3.org/1999/xlink"><g><path d="M440.138,301.929L440.138,301.929c-9.771-28.42-23.501-53.87-39.141-72.874c11.067-16.025,16.423-35.79,14.664-55.85   c-1.827-20.828-8.391-40.641-18.982-57.994C409.639,60.503,380.853,6.533,379.578,4.183c-1.016-1.87-2.734-3.259-4.777-3.858   c-2.042-0.6-4.24-0.36-6.104,0.663c-1.868,1.026-36.147,20.181-59.45,54.749c-6.443-1.04-12.995-1.578-19.608-1.578h-67.277   c-6.624,0-13.186,0.54-19.64,1.583c-23.299-34.56-57.55-53.729-59.417-54.754c-1.866-1.023-4.063-1.262-6.104-0.663   c-2.042,0.6-3.761,1.988-4.777,3.858c-1.276,2.351-30.062,56.321-17.101,111.028c-10.592,17.354-17.156,37.167-18.983,57.995   c-1.758,20.048,3.591,39.802,14.645,55.823c-15.635,19.006-29.352,44.487-39.122,72.9v0.001   c-23.084,67.144,11.546,138.604,13.032,141.612c1.393,2.822,4.229,4.461,7.179,4.461c1.167,0,2.353-0.257,3.473-0.798   c1.26-0.609,14.385-7.063,30.931-19.243c4.087,7.685,8.664,14.981,13.69,21.827C132.591,458.647,128,470.131,128,482.675   c0,16.17,13.155,29.325,29.325,29.325h53.35c5.194,0,10.074-1.363,14.31-3.742C234.995,510.701,245.365,512,256,512   c10.643,0,21.028-1.29,31.057-3.718c4.226,2.364,9.091,3.718,14.268,3.718h53.35c16.17,0,29.325-13.155,29.325-29.325   c0-12.566-4.608-24.069-12.209-32.934c5.04-6.828,9.634-14.105,13.728-21.782c16.548,12.182,29.675,18.637,30.935,19.246   c1.121,0.541,2.306,0.798,3.473,0.798c2.951,0,5.787-1.64,7.179-4.461C428.592,440.532,463.223,369.072,440.138,301.929z    M428.193,387.93c-8.069-2.693-17.306-9.609-26.268-19.85c-12.658-14.466-24.12-34.682-32.274-56.923   c-6.757-18.433-10.401-35.577-11.642-50.46c10.404-3.148,20.224-8.51,28.895-15.956c1.223-1.051,2.41-2.136,3.563-3.251   c13.683,17.27,25.758,40.097,34.541,65.64C434.57,334.945,432.872,364.253,428.193,387.93z M369.159,19.537   c6.092,13.984,17.366,45.065,14.278,77.641c-2.644-3.016-5.433-5.917-8.363-8.69c-14.176-13.418-30.909-23.175-48.949-28.785   C340.824,39.994,359.192,26.191,369.159,19.537z M142.847,19.523c9.967,6.635,28.319,20.433,43.015,40.184   c-18.035,5.611-34.764,15.366-48.936,28.781c-2.929,2.772-5.716,5.671-8.359,8.686C125.477,64.587,136.756,33.5,142.847,19.523z    M112.278,174.604c2.514-28.659,15.173-55.115,35.647-74.495c20.404-19.313,46.839-29.95,74.437-29.95h67.277   c27.598,0,54.033,10.637,74.437,29.95c20.474,19.38,33.134,45.836,35.647,74.495c1.942,22.152-6.746,43.834-23.243,58   c-15.673,13.46-36.014,18.412-55.81,13.581c-4.791-1.168-9.618-2.178-14.465-3.07l4.451-6.677c1.273-1.909,1.665-4.273,1.076-6.491   s-2.102-4.075-4.154-5.102c-32.296-16.148-70.859-16.148-103.155,0c-2.052,1.026-3.565,2.884-4.154,5.102s-0.197,4.582,1.076,6.491   l4.439,6.659c-4.843,0.901-9.665,1.92-14.453,3.088c-19.796,4.828-40.137-0.122-55.811-13.582   C119.023,218.438,110.335,196.756,112.278,174.604z M219.921,235.459c23.121-8.98,49.037-8.98,72.158,0L256,289.578   L219.921,235.459z M86.993,307.13c8.779-25.532,20.843-48.384,34.518-65.66c1.16,1.123,2.354,2.215,3.586,3.272   c8.669,7.444,18.489,12.79,28.89,15.938c-1.241,14.891-4.877,32.036-11.637,50.477c-8.154,22.241-19.616,42.457-32.274,56.923   c-8.964,10.244-18.201,17.154-26.269,19.841C79.128,364.246,77.431,334.941,86.993,307.13z M87.473,403.53   c25.615-7.669,53.237-41.421,69.898-86.865c6.718-18.327,10.832-36.408,12.395-52.946c2.18,0.186,4.372,0.286,6.572,0.286   c4.822-0.001,9.684-0.456,14.534-1.365c0.577,22.641-3.953,49.114-13.095,75.704c-16.769,48.771-63.67,79.903-81.856,90.449   C93.593,423.016,90.393,414.25,87.473,403.53z M178.675,448h10.65c19.12,0,34.675,15.555,34.675,34.675   c0,2.648-0.786,5.113-2.123,7.19l-6.721-13.443c-1.975-3.95-6.78-5.553-10.733-3.577c-3.952,1.976-5.554,6.781-3.578,10.733   L207.056,496H192v-8c0-4.418-3.582-8-8-8s-8,3.582-8,8v8h-15.056l6.211-12.422c1.976-3.952,0.375-8.758-3.578-10.733   c-3.952-1.977-8.758-0.373-10.733,3.577l-6.721,13.443c-1.338-2.077-2.123-4.541-2.123-7.19C144,463.555,159.555,448,178.675,448z    M237.509,494.482c1.597-3.615,2.491-7.608,2.491-11.807c0-21.334-13.259-39.619-31.964-47.079   C208.013,434.401,208,433.203,208,432c0-57.425,24.819-96,48-96s48,38.575,48,96c0,1.203-0.013,2.401-0.036,3.595   C285.259,443.056,272,461.34,272,482.675c0,4.206,0.896,8.203,2.498,11.823C268.448,495.477,262.276,496,256,496   C249.724,496,243.554,495.474,237.509,494.482z M365.877,489.865l-6.721-13.443c-1.975-3.95-6.781-5.553-10.733-3.577   s-5.554,6.781-3.578,10.733L351.056,496H336v-8c0-4.418-3.582-8-8-8s-8,3.582-8,8v8h-15.056l6.211-12.422   c1.976-3.952,0.375-8.758-3.578-10.733c-3.952-1.977-8.757-0.373-10.733,3.577l-6.721,13.443c-1.338-2.077-2.123-4.541-2.123-7.19   c0-19.12,15.555-34.675,34.675-34.675h10.65c19.12,0,34.675,15.555,34.675,34.675C368,485.323,367.214,487.788,365.877,489.865z    M359.633,439.379c-7.674-4.68-16.681-7.379-26.308-7.379h-10.65c-0.898,0-1.789,0.025-2.676,0.072   c0-0.024,0.001-0.048,0.001-0.072c0-62.804-28.112-112-64-112s-64,49.196-64,112c0,0.024,0.001,0.048,0.001,0.072   c-0.886-0.046-1.778-0.072-2.676-0.072h-10.65c-9.64,0-18.659,2.708-26.339,7.4c-4.851-6.716-9.232-13.911-13.101-21.51   c20.407-17.276,42.59-42.109,53.673-74.343c10.146-29.511,14.977-59.137,13.868-84.369c2.893-0.562,5.796-1.07,8.707-1.532   l33.861,50.791c1.483,2.226,3.981,3.562,6.656,3.562s5.173-1.337,6.656-3.562l33.845-50.767c2.919,0.456,5.829,0.964,8.73,1.523   c-1.109,25.228,3.716,54.846,13.861,84.354c11.083,32.233,33.266,57.066,53.672,74.342   C368.89,425.487,364.495,432.672,359.633,439.379z M416.08,428.793c-18.192-10.55-65.089-41.682-81.856-90.449   c-9.142-26.589-13.677-53.064-13.101-75.705c7.064,1.326,14.149,1.676,21.109,1.083c1.563,16.536,5.68,34.617,12.398,52.943   c16.661,45.442,44.282,79.193,69.897,86.867C421.606,414.253,418.406,423.018,416.08,428.793z"/><path d="M216,104h16c8.822,0,16,7.178,16,16c0,4.418,3.582,8,8,8s8-3.582,8-8c0-8.822,7.178-16,16-16h16c8.822,0,16-7.178,16-16   c0-4.418-3.582-8-8-8s-8,3.582-8,8h-16c-9.547,0-18.132,4.203-24,10.855C250.132,92.203,241.547,88,232,88l-16,0.01   c0,0,0-0.003,0-0.01c0-4.418-3.582-8-8-8s-8,3.582-8,8C200,96.822,207.178,104,216,104z"/><path d="M272,160c0,35.29,25.122,64,56,64s56-28.71,56-64s-25.122-64-56-64S272,124.71,272,160z M328,112c22.056,0,40,21.532,40,48   s-17.944,48-40,48c-13.925,0-26.205-8.588-33.371-21.576l13.724,4.116c3.27,0.981,6.589,1.462,9.87,1.462   c8.398,0,16.54-3.148,22.942-9.101c8.903-8.277,12.644-20.304,10.007-32.171l-3.929-17.678c-0.59-2.653-2.485-4.825-5.034-5.768   c-2.549-0.944-5.401-0.527-7.575,1.103l-46.53,34.897c-0.062-1.087-0.104-2.18-0.104-3.285C288,133.532,305.944,112,328,112z    M302.888,172.197l31.426-23.569l1.239,5.573c1.392,6.265-0.583,12.612-5.282,16.981c-4.699,4.37-11.173,5.879-17.32,4.032   L302.888,172.197z"/><path d="M184,224c30.878,0,56-28.71,56-64s-25.122-64-56-64s-56,28.71-56,64S153.122,224,184,224z M184,112   c22.056,0,40,21.532,40,48c0,1.105-0.043,2.198-0.104,3.285l-46.53-34.897c-2.172-1.63-5.025-2.047-7.575-1.103   c-2.549,0.942-4.444,3.114-5.034,5.768l-3.929,17.678c-2.637,11.867,1.104,23.894,10.007,32.171   c6.403,5.952,14.543,9.101,22.942,9.101c3.28,0,6.6-0.48,9.87-1.461l13.723-4.117C210.204,199.413,197.925,208,184,208   c-22.056,0-40-21.532-40-48S161.944,112,184,112z M209.112,172.196l-10.062,3.02c-6.147,1.843-12.621,0.337-17.32-4.033   c-4.7-4.369-6.674-10.717-5.282-16.981l1.239-5.573L209.112,172.196z"/></g></svg>